HIERARCHY
ROOT Hips
{
	OFFSET 0.0000 0.0000 0.0000
	CHANNELS 6 Xposition Yposition Zposition Zrotation Xrotation Yrotation
	JOINT Ab
	{
		OFFSET -0.0000 8.1305 -0.0000
		CHANNELS 3 Zrotation Xrotation Yrotation
		JOINT Chest
		{
			OFFSET -0.0000 26.2902 -0.0000
			CHANNELS 3 Zrotation Xrotation Yrotation
			JOINT Neck
			{
				OFFSET -0.0000 26.2902 0.0000
				CHANNELS 3 Zrotation Xrotation Yrotation
				JOINT Head
				{
					OFFSET -0.0000 10.8167 0.0000
					CHANNELS 3 Zrotation Xrotation Yrotation
					End Site
					{
						OFFSET -0.0000 16.7167 0.0000
					}
				}
			}
			JOINT LeftCollar
			{
				OFFSET -0.0000 26.2902 0.0000
				CHANNELS 3 Zrotation Xrotation Yrotation
				JOINT LeftShoulder
				{
					OFFSET 19.6667 -0.0000 0.0000
					CHANNELS 3 Zrotation Xrotation Yrotation
					JOINT LeftElbow
					{
						OFFSET 27.2190 0.0000 0.0000
						CHANNELS 3 Zrotation Xrotation Yrotation
						JOINT LeftWrist
						{
							OFFSET 30.7431 0.0000 0.0000
							CHANNELS 3 Zrotation Xrotation Yrotation
							End Site
							{
								OFFSET 0.0000 -14.7500 0.0000
							}
						}
					}
				}
			}
			JOINT RightCollar
			{
				OFFSET -0.0000 26.2902 0.0000
				CHANNELS 3 Zrotation Xrotation Yrotation
				JOINT RightShoulder
				{
					OFFSET -19.6667 0.0000 0.0000
					CHANNELS 3 Zrotation Xrotation Yrotation
					JOINT RightElbow
					{
						OFFSET -27.2190 0.0000 0.0000
						CHANNELS 3 Zrotation Xrotation Yrotation
						JOINT RightWrist
						{
							OFFSET -30.7431 0.0000 0.0000
							CHANNELS 3 Zrotation Xrotation Yrotation
							End Site
							{
								OFFSET -0.0000 -14.7500 0.0000
							}
						}
					}
				}
			}
		}
	}
	JOINT LeftHip
	{
		OFFSET 11.8000 0.0000 0.0000
		CHANNELS 3 Zrotation Xrotation Yrotation
		JOINT LeftKnee
		{
			OFFSET -0.0000 -39.7832 0.0000
			CHANNELS 3 Zrotation Xrotation Yrotation
			JOINT LeftAnkle
			{
				OFFSET -0.0000 -41.7317 0.0000
				CHANNELS 3 Zrotation Xrotation Yrotation
				End Site
				{
					OFFSET -0.0000 -4.9167 16.7167
				}
			}
		}
	}
	JOINT RightHip
	{
		OFFSET -11.8000 0.0000 0.0000
		CHANNELS 3 Zrotation Xrotation Yrotation
		JOINT RightKnee
		{
			OFFSET -0.0000 -39.7832 0.0000
			CHANNELS 3 Zrotation Xrotation Yrotation
			JOINT RightAnkle
			{
				OFFSET -0.0000 -41.7317 0.0000
				CHANNELS 3 Zrotation Xrotation Yrotation
				End Site
				{
					OFFSET -0.0000 -4.9167 16.7167
				}
			}
		}
	}
}
MOTION
Frames: 11
Frame Time: 0.010000
-8.9765 92.5116 98.9570 355.8327 345.8621 195.2146 358.2081 350.2316 1.2583 359.5140 11.6012 1.4651 347.0220 343.2628 352.1513 7.4077 9.2269 353.4551 337.4490 357.5355 12.4211 324.2463 41.2748 356.7571 359.4287 0.2657 310.1706 85.7913 357.5239 333.5623 26.9119 356.0041 343.4120 37.9222 44.1781 8.6879 336.4269 347.9005 54.6162 267.5646 354.1822 1.6562 347.6110 341.6816 355.1669 358.5855 8.1127 1.0784 345.9231 349.6222 11.4212 353.0736 354.7441 3.8649 12.0521 23.5554 13.3511 349.0402 338.8559 314.0080 
-8.8896 92.1920 97.7427 355.9502 346.3845 195.2741 358.1186 350.2962 1.2474 359.3783 11.5969 1.4723 347.0790 343.5958 352.1468 7.6669 9.3091 353.3769 337.4371 357.5201 12.4438 324.2462 40.9602 357.0261 359.3440 0.3308 310.2776 84.7395 357.7385 332.6891 26.9080 355.9968 343.3005 38.0558 44.2726 8.5610 336.8011 348.0737 54.7048 267.6073 354.2924 2.0280 347.8683 342.0188 354.9240 358.5964 8.2370 0.8534 346.0130 349.5442 11.7145 353.3862 355.1084 3.3587 12.4218 25.3472 13.6350 349.1646 338.3697 314.2353 
-8.7980 91.7322 96.2859 356.0378 346.8945 195.2301 358.0287 350.2216 1.2033 359.1647 11.6770 1.4576 347.1462 344.0750 352.2363 7.9825 9.2566 353.3943 337.5559 357.5327 12.5781 324.1406 40.8243 357.2185 359.3391 0.2944 310.2153 85.0267 357.5251 332.7477 26.9596 355.9840 343.3257 38.1899 44.2577 8.2788 337.3179 348.3912 54.7950 267.6676 354.3116 2.1496 348.1013 342.4640 354.7118 358.7650 8.3682 359.9028 347.1119 350.7056 12.8535 353.4991 355.1557 2.9676 13.1640 27.9258 13.9306 349.5235 337.7283 314.3892 
-8.7320 91.3261 95.0789 356.1066 347.3287 195.1821 357.9468 350.2037 1.1688 358.9202 11.6283 1.4563 347.3032 344.5622 352.3426 8.1435 9.2032 353.4073 337.5670 357.4869 12.6544 324.0658 40.5393 357.5394 359.2952 0.3348 310.4072 87.2683 356.3886 334.0873 27.0504 355.9677 343.4182 38.3350 44.3248 7.9157 337.8135 348.6275 54.8553 267.8205 354.2766 2.6688 348.3888 342.6505 354.4462 358.5848 9.7250 359.9907 348.0978 350.7159 13.5771 353.4752 355.0626 2.6089 14.0847 30.3501 13.6639 350.1711 337.1266 314.8963 
-8.7401 91.0737 94.1114 355.9995 347.7796 195.0595 357.8083 350.2220 1.1550 358.6812 11.6962 1.4818 347.2890 344.9508 352.4109 8.4337 9.0846 353.4277 337.4783 357.4443 12.7314 323.9994 40.1722 357.8782 359.2690 0.3545 310.5157 87.9573 356.2349 334.0509 27.1185 355.9854 343.5257 38.3823 44.4418 7.7545 338.2369 348.8132 54.8212 268.0119 354.1798 3.2211 348.5866 343.0765 354.2293 358.2077 11.3847 0.9991 348.9241 350.1033 13.1897 353.2394 355.0742 2.1104 14.9794 32.5007 13.6173 350.9556 336.6127 315.3702 
-8.7430 90.7987 92.9615 355.7970 348.0787 194.8834 357.6773 350.1483 1.0758 358.2135 11.8303 1.4607 347.5004 345.2361 352.5491 8.5274 8.9257 353.5126 337.5106 357.4460 12.8321 323.9602 39.8660 357.9760 359.4248 0.2439 310.5441 88.2542 356.1594 334.1206 27.2707 355.9928 343.7304 38.8094 44.2591 7.2092 338.7247 349.1368 54.6862 268.1865 354.1813 3.7643 348.5881 343.4528 353.9903 358.1029 12.5893 0.0704 350.8365 350.4032 14.3530 352.6902 354.8920 1.6909 16.1289 34.9912 13.3948 351.9538 336.2334 315.9681 
-8.7734 90.5805 91.7731 355.3843 348.2369 194.5892 357.2471 349.9799 1.0371 357.8548 11.9087 1.5034 347.5250 345.5537 352.6926 8.7351 8.6960 353.6242 337.3519 357.3954 13.0447 324.0888 39.6133 358.0097 359.5959 0.1541 310.5848 88.5119 356.0648 334.3664 27.4194 356.0106 343.9076 39.0909 44.4872 6.7997 338.9998 349.3258 54.2039 268.4890 354.1854 4.3178 348.3321 343.9704 354.0160 358.1471 13.2349 358.9561 352.0228 350.7038 15.8201 351.9303 354.5281 1.2913 17.1093 37.5229 13.0551 353.1110 336.3738 316.8130 
-8.8084 90.4290 90.6231 354.8537 348.3175 194.3602 356.6606 349.8497 0.9689 357.4909 11.9828 1.5320 347.5808 345.6583 352.7589 8.9109 8.5608 353.6675 337.2030 357.3452 13.2198 324.2635 39.4361 357.9004 359.8678 0.0182 310.6151 88.7798 355.9748 334.7090 27.5486 356.0111 343.9513 39.4702 44.6349 6.4798 339.1570 349.5054 53.4855 268.7682 354.1690 4.8139 348.0384 344.3044 353.5910 357.7739 14.3739 359.1705 352.9924 350.5924 16.7009 350.9735 353.8957 0.8025 18.2598 40.3385 12.4187 354.6762 336.7781 317.8517 
-8.8512 90.3210 89.5053 354.3713 348.4193 194.2475 356.1089 349.8381 0.9179 357.1863 11.9926 1.5660 347.6242 345.7560 352.7557 9.0301 8.4401 353.6397 337.0277 357.3120 13.3092 324.6211 39.3576 357.5666 0.0128 359.9451 310.6487 88.7438 355.9705 334.7340 27.5789 356.0178 343.9598 40.1355 44.4433 5.8749 339.3055 349.6971 52.8321 269.1852 354.2517 5.4074 347.7793 344.8516 353.0499 357.1895 15.0939 0.4028 354.2276 350.7127 16.6863 349.9273 353.0024 0.3737 20.0706 43.3671 10.7590 356.4779 337.6253 319.3023 
-8.9006 90.2242 88.3937 354.0559 348.5630 194.1114 355.8550 349.7793 0.9185 356.7927 12.1646 1.6354 347.5787 345.7236 352.7500 9.1749 8.4178 353.6381 336.8693 357.2618 13.4516 324.9895 39.3140 357.0780 0.2605 359.8182 310.6363 88.7618 355.9750 334.7724 27.6435 356.0254 343.9859 40.4808 44.3252 5.4235 339.4971 349.9301 52.2927 269.3972 354.4699 5.7997 347.5491 345.6197 352.7911 357.0253 15.3438 0.5206 354.3321 350.3758 16.8041 348.8252 351.8273 359.0492 21.7381 46.7947 9.2459 357.9682 339.2426 320.8724 
-8.9402 90.1207 87.3087 353.8427 348.7445 193.9280 355.7013 349.7997 0.9542 356.4778 12.2144 1.7185 347.6482 345.7372 352.7623 9.0791 8.4340 353.6396 336.6847 357.2058 13.6252 325.4058 39.3189 356.5080 0.4400 359.7501 310.5704 88.9221 355.9299 334.8816 27.5918 356.0495 344.0719 41.0189 44.1625 4.7626 339.6477 350.0763 51.9171 269.7969 354.6608 6.2987 347.4072 346.5122 352.7264 356.9616 15.4110 0.5882 354.9172 349.9856 16.9982 347.7157 350.5326 357.9097 23.6522 50.1085 7.2073 359.2764 341.6445 322.4336 
